<svg width="36" height="36" viewBox="0 0 36 36" fill="none" xmlns="http://www.w3.org/2000/svg">
<mask id="mask0_129_21" style="mask-type:alpha" maskUnits="userSpaceOnUse" x="0" y="0" width="36" height="36">
<rect x="0.5" y="0.5" width="35" height="35" rx="17.5" stroke="#FF00A8"/>
</mask>
<g mask="url(#mask0_129_21)">
<rect width="36" height="36" fill="#FF00A8"/>
</g>
<circle cx="18" cy="18" r="15" fill="#59003B"/>
<path fill-rule="evenodd" clip-rule="evenodd" d="M12.0474 9.66686C11.3899 9.00937 10.3239 9.00937 9.66645 9.66686C9.00897 10.3243 9.00897 11.3903 9.66645 12.0478L15.6187 18.0001L9.6665 23.9522C9.00902 24.6097 9.00902 25.6757 9.6665 26.3332C10.324 26.9907 11.39 26.9907 12.0475 26.3332L17.9997 20.381L23.9521 26.3335C24.6096 26.991 25.6756 26.991 26.3331 26.3335C26.9906 25.676 26.9906 24.61 26.3331 23.9527L20.3806 18.0001L26.3331 12.0475C26.9906 11.39 26.9906 10.324 26.3331 9.66651C25.6756 9.00902 24.6096 9.00904 23.9523 9.66652L17.9997 15.6191L12.0474 9.66686Z" fill="#FF00A8"/>
</svg>
