<svg width="22" height="22" viewBox="0 0 22 22" fill="none" xmlns="http://www.w3.org/2000/svg">
<rect width="22" height="22" rx="3" fill="#390025"/>
<path d="M12.4874 11L15.8537 7.6338C16.0484 7.43912 16.0484 7.12319 15.8537 6.92819L15.0715 6.14601C14.8768 5.95133 14.5608 5.95133 14.3658 6.14601L10.9998 9.51252L7.63354 6.14633C7.43885 5.95164 7.12291 5.95164 6.92791 6.14633L6.14602 6.92819C5.95133 7.12287 5.95133 7.43881 6.14602 7.6338L9.51232 11L6.14602 14.3662C5.95133 14.5609 5.95133 14.8768 6.14602 15.0718L6.92822 15.854C7.12291 16.0487 7.43885 16.0487 7.63385 15.854L10.9998 12.4875L14.3661 15.8537C14.5608 16.0484 14.8768 16.0484 15.0718 15.8537L15.854 15.0715C16.0487 14.8768 16.0487 14.5609 15.854 14.3659L12.4874 11Z" fill="#FF00A8"/>
</svg>
