<svg width="16" height="14" viewBox="0 0 16 14" fill="none" xmlns="http://www.w3.org/2000/svg">
<path d="M8.00008 0.321362C3.58168 0.321362 0 2.83088 0 5.92704C0 7.36848 0.777682 8.68232 2.05368 9.67512C2.3512 9.90672 2.48936 10.2898 2.40752 10.658L1.85776 13.1321C1.81792 13.3114 1.89136 13.497 2.04304 13.6005C2.19472 13.7041 2.39432 13.7048 2.54672 13.6022L5.49944 11.6179C5.75856 11.4437 6.07312 11.372 6.382 11.4166C6.90456 11.4922 7.44552 11.5325 8.00008 11.5325C12.4184 11.5325 16 9.0228 16 5.92688C16 2.83088 12.4184 0.321362 8.00008 0.321362ZM4.12024 7.11872C3.38096 7.11872 2.78184 6.51952 2.78184 5.78032C2.78184 5.04088 3.38096 4.44208 4.12024 4.44208C4.85936 4.44208 5.45864 5.0408 5.45864 5.78032C5.45864 6.5196 4.85936 7.11872 4.12024 7.11872ZM8 7.11872C7.26072 7.11872 6.66152 6.51952 6.66152 5.78032C6.66152 5.04088 7.26072 4.44208 8 4.44208C8.7392 4.44208 9.3384 5.0408 9.3384 5.78032C9.3384 6.5196 8.7392 7.11872 8 7.11872ZM11.8798 7.11872C11.1406 7.11872 10.5413 6.51952 10.5413 5.78032C10.5413 5.04088 11.1406 4.44208 11.8798 4.44208C12.619 4.44208 13.2182 5.0408 13.2182 5.78032C13.2182 6.5196 12.619 7.11872 11.8798 7.11872Z" fill="#FF00A8"/>
</svg>
