<svg width="40" height="40" viewBox="0 0 40 40" fill="none" xmlns="http://www.w3.org/2000/svg">
<rect width="40" height="40" rx="8" fill="#F2F2F2"/>
<g clip-path="url(#clip0_85_44)">
<path fill-rule="evenodd" clip-rule="evenodd" d="M13.7333 20C13.7333 19.3014 13.8494 18.6316 14.0565 18.0034L10.4316 15.2353C9.72512 16.6697 9.32709 18.286 9.32709 20C9.32709 21.7126 9.72463 23.3279 10.4301 24.7613L14.053 21.9878C13.8479 21.3625 13.7333 20.6952 13.7333 20Z" fill="#FBBC05"/>
<path fill-rule="evenodd" clip-rule="evenodd" d="M20.0979 13.6444C21.6156 13.6444 22.9865 14.1822 24.0635 15.0622L27.1969 11.9333C25.2875 10.2711 22.8396 9.24445 20.0979 9.24445C15.8415 9.24445 12.1833 11.6786 10.4316 15.2353L14.0565 18.0034C14.8917 15.468 17.2725 13.6444 20.0979 13.6444Z" fill="#EB4335"/>
<path fill-rule="evenodd" clip-rule="evenodd" d="M20.0979 26.3555C17.2725 26.3555 14.8917 24.532 14.0565 21.9966L10.4316 24.7642C12.1833 28.3214 15.8415 30.7555 20.0979 30.7555C22.725 30.7555 25.2332 29.8227 27.1156 28.075L23.6748 25.4149C22.704 26.0265 21.4815 26.3555 20.0979 26.3555Z" fill="#34A853"/>
<path fill-rule="evenodd" clip-rule="evenodd" d="M30.3791 20C30.3791 19.3644 30.2812 18.68 30.1344 18.0444H20.0979V22.2H25.875C25.5861 23.6168 24.7999 24.706 23.6748 25.4149L27.1156 28.075C29.093 26.2397 30.3791 23.5058 30.3791 20Z" fill="#4285F4"/>
</g>
<defs>
<clipPath id="clip0_85_44">
<rect width="22" height="22" fill="white" transform="translate(9 9)"/>
</clipPath>
</defs>
</svg>
