<svg width="28" height="28" viewBox="0 0 28 28" fill="none" xmlns="http://www.w3.org/2000/svg">
<g clip-path="url(#clip0_211_23)">
<path d="M24.3061 5.4826C24.9457 6.30367 25.4787 7.20419 25.9318 8.15768L13.6188 17.1894L8.44836 13.9581V10.0912L13.5921 13.2959L24.3061 5.4826Z" fill="#1A9329"/>
<path d="M3.19856 13.6933C3.19856 13.5079 3.19856 13.349 3.22521 13.1636L0.106974 13.0046C0.106974 13.2165 0.0803223 13.4549 0.0803223 13.6668C0.0803223 17.3748 1.59946 20.7385 4.05141 23.1752L6.26349 20.9769C4.37123 19.1229 3.19856 16.5538 3.19856 13.6933Z" fill="#1A9329"/>
<path d="M13.5921 3.36374C13.7787 3.36374 13.9386 3.36374 14.1252 3.39023L14.2851 0.291378C14.0719 0.291378 13.832 0.264893 13.6188 0.264893C9.8876 0.264893 6.50285 1.77459 4.0509 4.21129L6.26299 6.40962C8.1286 4.52912 10.7404 3.36374 13.5921 3.36374Z" fill="#1A9329"/>
<path d="M13.5922 24.0227C13.4057 24.0227 13.2458 24.0227 13.0592 23.9963L12.8993 27.0951C13.1125 27.0951 13.3524 27.1216 13.5656 27.1216C17.2968 27.1216 20.6816 25.6119 23.1335 23.1752L20.9214 20.9769C19.0558 22.8839 16.4706 24.0227 13.5922 24.0227Z" fill="#1A9329"/>
<path d="M19.4553 5.16478L22.0938 3.23131C19.7751 1.3773 16.8168 0.238403 13.592 0.238403V3.33725C15.7774 3.36374 17.8029 4.02589 19.4553 5.16478Z" fill="#1A9329"/>
<path d="M27.1313 13.6932C27.1313 12.8722 27.0513 12.0776 26.9181 11.283L24.0131 13.4284C24.0131 13.5078 24.0131 13.6138 24.0131 13.6932C24.0131 16.7391 22.6805 19.4672 20.575 21.3477L22.6805 23.6519C25.3989 21.2152 27.1313 17.6396 27.1313 13.6932Z" fill="#1A9329"/>
<path d="M13.5922 24.0227C10.5272 24.0227 7.78212 22.6984 5.88986 20.606L3.57117 22.6984C6.04976 25.4265 9.62108 27.1216 13.5922 27.1216V24.0227Z" fill="#1A9329"/>
<path d="M6.63662 6.03877L4.53114 3.7345C1.78603 6.19769 0.0803223 9.7468 0.0803223 13.6932H3.19856C3.19856 10.6738 4.53114 7.91927 6.63662 6.03877Z" fill="#1A9329"/>
</g>
<defs>
<clipPath id="clip0_211_23">
<rect width="28" height="28" fill="white"/>
</clipPath>
</defs>
</svg>
