<svg width="20" height="20" viewBox="0 0 20 20" fill="none" xmlns="http://www.w3.org/2000/svg">
<path d="M9.60235 13.3942C10.1799 13.3942 10.4478 12.9925 10.4478 12.4567V12.1721C10.4645 11.0673 10.8663 10.6069 12.2056 9.68611C13.637 8.71511 14.5493 7.59346 14.5493 5.97796C14.5493 3.46679 12.5069 2.02707 9.97067 2.02707C8.07892 2.02707 6.41317 2.92271 5.70167 4.53821C5.52588 4.93164 5.45056 5.31668 5.45056 5.63479C5.45056 6.11189 5.72681 6.44671 6.23738 6.44671C6.66428 6.44671 6.94888 6.19561 7.07445 5.78543C7.50974 4.19504 8.55603 3.59236 9.91206 3.59236C11.5443 3.59236 12.8166 4.51311 12.8166 5.96957C12.8166 7.16657 12.0717 7.83621 11.0002 8.58957C9.68606 9.50196 8.72345 10.4813 8.72345 11.9545V12.4819C8.72345 13.0176 9.01642 13.3942 9.60235 13.3942ZM9.60235 17.9729C10.2636 17.9729 10.791 17.4372 10.791 16.7843C10.791 16.123 10.2636 15.5957 9.60235 15.5957C8.94945 15.5957 8.40538 16.123 8.40538 16.7843C8.40538 17.4372 8.94945 17.9729 9.60235 17.9729Z" fill="#FF00A8"/>
</svg>
