<svg width="104" height="28" viewBox="0 0 104 28" fill="none" xmlns="http://www.w3.org/2000/svg">
<path d="M19.692 21V8.4H25.596C27.108 8.4 28.26 8.7 29.052 9.3C29.844 9.888 30.24 10.68 30.24 11.676C30.24 12.348 30.084 12.924 29.772 13.404C29.46 13.872 29.04 14.238 28.512 14.502C27.996 14.754 27.432 14.88 26.82 14.88L27.144 14.232C27.852 14.232 28.488 14.364 29.052 14.628C29.616 14.88 30.06 15.252 30.384 15.744C30.72 16.236 30.888 16.848 30.888 17.58C30.888 18.66 30.474 19.5 29.646 20.1C28.818 20.7 27.588 21 25.956 21H19.692ZM22.032 19.164H25.812C26.688 19.164 27.36 19.02 27.828 18.732C28.296 18.444 28.53 17.982 28.53 17.346C28.53 16.722 28.296 16.266 27.828 15.978C27.36 15.678 26.688 15.528 25.812 15.528H21.852V13.71H25.344C26.16 13.71 26.784 13.566 27.216 13.278C27.66 12.99 27.882 12.558 27.882 11.982C27.882 11.394 27.66 10.956 27.216 10.668C26.784 10.38 26.16 10.236 25.344 10.236H22.032V19.164ZM39.2894 21.18C38.3054 21.18 37.3994 21.018 36.5714 20.694C35.7434 20.37 35.0234 19.92 34.4114 19.344C33.7994 18.756 33.3254 18.072 32.9894 17.292C32.6534 16.5 32.4854 15.636 32.4854 14.7C32.4854 13.764 32.6534 12.906 32.9894 12.126C33.3254 11.334 33.7994 10.65 34.4114 10.074C35.0234 9.486 35.7434 9.03 36.5714 8.706C37.3994 8.382 38.2994 8.22 39.2714 8.22C40.2554 8.22 41.1554 8.382 41.9714 8.706C42.7994 9.03 43.5194 9.486 44.1314 10.074C44.7434 10.65 45.2174 11.334 45.5534 12.126C45.8894 12.906 46.0574 13.764 46.0574 14.7C46.0574 15.636 45.8894 16.5 45.5534 17.292C45.2174 18.084 44.7434 18.768 44.1314 19.344C43.5194 19.92 42.7994 20.37 41.9714 20.694C41.1554 21.018 40.2614 21.18 39.2894 21.18ZM39.2714 19.128C39.9074 19.128 40.4954 19.02 41.0354 18.804C41.5754 18.588 42.0434 18.282 42.4394 17.886C42.8354 17.478 43.1414 17.01 43.3574 16.482C43.5854 15.942 43.6994 15.348 43.6994 14.7C43.6994 14.052 43.5854 13.464 43.3574 12.936C43.1414 12.396 42.8354 11.928 42.4394 11.532C42.0434 11.124 41.5754 10.812 41.0354 10.596C40.4954 10.38 39.9074 10.272 39.2714 10.272C38.6354 10.272 38.0474 10.38 37.5074 10.596C36.9794 10.812 36.5114 11.124 36.1034 11.532C35.7074 11.928 35.3954 12.396 35.1674 12.936C34.9514 13.464 34.8434 14.052 34.8434 14.7C34.8434 15.336 34.9514 15.924 35.1674 16.464C35.3954 17.004 35.7074 17.478 36.1034 17.886C36.4994 18.282 36.9674 18.588 37.5074 18.804C38.0474 19.02 38.6354 19.128 39.2714 19.128ZM48.5377 21V8.4H50.4637L55.9717 17.598H54.9637L60.3817 8.4H62.3077L62.3257 21H60.1117L60.0937 11.874H60.5617L55.9537 19.56H54.9097L50.2297 11.874H50.7697V21H48.5377ZM65.7291 21V8.4H71.6331C73.1451 8.4 74.2971 8.7 75.0891 9.3C75.8811 9.888 76.2771 10.68 76.2771 11.676C76.2771 12.348 76.1211 12.924 75.8091 13.404C75.4971 13.872 75.0771 14.238 74.5491 14.502C74.0331 14.754 73.4691 14.88 72.8571 14.88L73.1811 14.232C73.8891 14.232 74.5251 14.364 75.0891 14.628C75.6531 14.88 76.0971 15.252 76.4211 15.744C76.7571 16.236 76.9251 16.848 76.9251 17.58C76.9251 18.66 76.5111 19.5 75.6831 20.1C74.8551 20.7 73.6251 21 71.9931 21H65.7291ZM68.0691 19.164H71.8491C72.7251 19.164 73.3971 19.02 73.8651 18.732C74.3331 18.444 74.5671 17.982 74.5671 17.346C74.5671 16.722 74.3331 16.266 73.8651 15.978C73.3971 15.678 72.7251 15.528 71.8491 15.528H67.8891V13.71H71.3811C72.1971 13.71 72.8211 13.566 73.2531 13.278C73.6971 12.99 73.9191 12.558 73.9191 11.982C73.9191 11.394 73.6971 10.956 73.2531 10.668C72.8211 10.38 72.1971 10.236 71.3811 10.236H68.0691V19.164ZM81.5825 13.638H87.8465V15.564H81.5825V13.638ZM81.7625 19.038H88.8725V21H79.4225V8.4H88.6205V10.362H81.7625V19.038ZM91.4811 21V8.4H96.6651C97.7811 8.4 98.7351 8.58 99.5271 8.94C100.331 9.3 100.949 9.816 101.381 10.488C101.813 11.16 102.029 11.958 102.029 12.882C102.029 13.806 101.813 14.604 101.381 15.276C100.949 15.936 100.331 16.446 99.5271 16.806C98.7351 17.154 97.7811 17.328 96.6651 17.328H92.7771L93.8211 16.266V21H91.4811ZM99.7251 21L96.5391 16.428H99.0411L102.245 21H99.7251ZM93.8211 16.518L92.7771 15.402H96.5571C97.5891 15.402 98.3631 15.18 98.8791 14.736C99.4071 14.292 99.6711 13.674 99.6711 12.882C99.6711 12.078 99.4071 11.46 98.8791 11.028C98.3631 10.596 97.5891 10.38 96.5571 10.38H92.7771L93.8211 9.228V16.518Z" fill="#FF00A8"/>
<g clip-path="url(#clip0_27_12)">
<path d="M15.1604 6.45676L14 -6.09457e-07C14 -6.09457e-07 10.729 -6.05564e-06 8.63313 -7.62939e-06C5.80842 -9.7504e-06 1.4 -7.62939e-06 1.4 -7.62939e-06L0.239725 6.45682C0.210303 6.63089 0.282655 6.80681 0.425443 6.91088L3.79801 9.36366C3.60059 9.81401 3.41722 10.2699 3.25294 10.7333H5.83314C6.09121 10.7333 6.29979 10.9419 6.29979 11.2C6.29979 11.458 6.09121 11.6666 5.83314 11.6666H2.94636C2.8535 11.9755 2.77043 12.2868 2.6925 12.5999H4.89985C5.15792 12.5999 5.3665 12.8085 5.3665 13.0666C5.3665 13.3247 5.15792 13.5332 4.89985 13.5332H2.48535C2.23335 14.8021 2.09986 16.0962 2.09986 17.3967V20.7722L2.89457 21.0895C5.98856 22.2151 9.41155 22.2146 12.519 21.0849L13.2998 20.7568V17.3968C13.2998 14.6267 12.7118 11.8841 11.6048 9.36175L14.9746 6.91083C15.1175 6.80676 15.1893 6.63083 15.1604 6.45676ZM6.29984 5.14169C6.22798 5.23455 6.16127 5.33119 6.09127 5.42541C6.00213 5.54441 5.91348 5.66341 5.82713 5.78427C5.73613 5.91213 5.64699 6.04185 5.55878 6.17162C5.47992 6.28876 5.40199 6.40634 5.32499 6.5249C5.23306 6.66725 5.14206 6.81004 5.05341 6.95425C4.99555 7.04946 4.93955 7.14604 4.88262 7.24218C4.63997 7.65375 4.40712 8.07053 4.19476 8.49796L1.20764 6.32562L2.00142 1.56378L6.2999 3.12663L6.29984 5.14169ZM8.16649 2.79998V5.30176V5.30505V9.33331C8.16649 9.59089 7.95742 9.79996 7.69984 9.79996C7.4427 9.79996 7.23319 9.59089 7.23319 9.33331V5.30505V5.30226V2.79998V0.933341H8.16654L8.16649 2.79998ZM11.2054 8.49796C11.1275 8.34068 11.0416 8.18761 10.9595 8.03225C10.9114 7.94125 10.8648 7.84976 10.8153 7.75974C10.7322 7.60853 10.6449 7.45967 10.5577 7.31032C10.4886 7.19225 10.4195 7.07418 10.3482 6.95704C10.2642 6.82032 10.1783 6.68497 10.0915 6.54962C10.0108 6.42455 9.92818 6.3009 9.84467 6.1772C9.75696 6.04792 9.66924 5.91913 9.57868 5.7922C9.49325 5.67178 9.4046 5.55371 9.31596 5.4352C9.24361 5.33764 9.17454 5.23778 9.09989 5.14169V3.12663L13.3988 1.56378L14.1922 6.32562L11.2054 8.49796Z" fill="#FF00A8"/>
<path d="M7.69366 22.8643C5.95345 22.8643 4.2156 22.5628 2.56175 21.9613L2.10024 21.777V22.4C2.10024 25.4879 4.6123 27.9999 7.70022 27.9999C10.7877 27.9999 13.3002 25.4879 13.3002 22.4V21.7681L12.8592 21.9534C11.1894 22.561 9.43988 22.8643 7.69366 22.8643Z" fill="#FF00A8"/>
</g>
<defs>
<clipPath id="clip0_27_12">
<rect width="16" height="28" fill="white"/>
</clipPath>
</defs>
</svg>
