<svg width="12" height="15" viewBox="0 0 12 15" fill="none" xmlns="http://www.w3.org/2000/svg">
<path fill-rule="evenodd" clip-rule="evenodd" d="M10.6996 10.7218L8.20691 9.52821C8.09302 9.47495 7.99676 9.39118 7.92921 9.28654C7.86167 9.18191 7.82557 9.06067 7.82509 8.93678V8.09143C8.24125 7.58734 8.56566 7.01645 8.784 6.40393C8.96389 6.32762 9.1172 6.20141 9.22513 6.04079C9.33306 5.88016 9.39093 5.69209 9.39164 5.49964V4.5C9.39025 4.25677 9.29694 4.02271 9.12982 3.84321V2.51464C9.14509 2.37643 9.20291 1.55786 8.58436 0.882857C8.05091 0.296786 7.17927 0 6 0C4.82073 0 3.95127 0.296786 3.41455 0.882857C2.79709 1.55786 2.85491 2.37643 2.86909 2.51357V3.84321C2.70254 4.02298 2.60966 4.25695 2.60836 4.5V5.49964C2.60836 5.80393 2.75345 6.08893 2.99891 6.2775C3.23891 7.18393 3.73855 7.8675 3.91309 8.08607V8.91428C3.9127 9.03384 3.87893 9.151 3.81546 9.25301C3.75199 9.35502 3.66124 9.43798 3.55309 9.49286L1.22727 10.7111C0.858874 10.9002 0.549942 11.1844 0.3337 11.5331C0.117458 11.8818 0.00208884 12.2817 0 12.69L0 13.5C0 14.6861 3.92509 15 6 15C8.07491 15 12 14.6861 12 13.5V12.7393C11.9991 12.3168 11.8766 11.9031 11.6465 11.5461C11.4164 11.1891 11.0881 10.9033 10.6996 10.7218Z" fill="#FF00A8"/>
</svg>
