<svg width="8" height="9" viewBox="0 0 8 9" fill="none" xmlns="http://www.w3.org/2000/svg">
<path d="M0.4 4.53665H3.6V1.33665C3.6 1.23056 3.64214 1.12882 3.71716 1.0538C3.79217 0.978788 3.89391 0.936646 4 0.936646C4.10609 0.936646 4.20783 0.978788 4.28284 1.0538C4.35786 1.12882 4.4 1.23056 4.4 1.33665V4.53665H7.6C7.70609 4.53665 7.80783 4.57879 7.88284 4.6538C7.95786 4.72882 8 4.83056 8 4.93665C8 5.04273 7.95786 5.14447 7.88284 5.21949C7.80783 5.2945 7.70609 5.33665 7.6 5.33665H4.4V8.53665C4.4 8.64273 4.35786 8.74447 4.28284 8.81949C4.20783 8.8945 4.10609 8.93665 4 8.93665C3.89391 8.93665 3.79217 8.8945 3.71716 8.81949C3.64214 8.74447 3.6 8.64273 3.6 8.53665V5.33665H0.4C0.293913 5.33665 0.192172 5.2945 0.117157 5.21949C0.0421427 5.14447 0 5.04273 0 4.93665C0 4.83056 0.0421427 4.72882 0.117157 4.6538C0.192172 4.57879 0.293913 4.53665 0.4 4.53665Z" fill="#FF00A8"/>
</svg>
