<svg width="100" height="28" viewBox="0 0 100 28" fill="none" xmlns="http://www.w3.org/2000/svg">
<path d="M78.8885 8.29018L82.5665 5.58862H70.2534V21.7715H82.5665V19.0699H73.7714V14.9381H81.2872V12.2366H73.7714V8.29018H78.8885Z" fill="white"/>
<path d="M60.952 11.8923H56.6877V8.29018H63.5105L67.1884 5.58862H53.1697V21.7715H60.4989C64.6032 21.7715 66.9752 19.9175 66.9752 16.6862C66.9752 13.5874 64.8431 11.8923 60.952 11.8923ZM60.3656 19.0699H56.6877V14.5938H60.3656C62.6044 14.5938 63.6438 15.3354 63.6438 16.8451C63.6438 18.3548 62.5244 19.0699 60.3656 19.0699Z" fill="white"/>
<path d="M92.5341 5.58862H85.8446V21.7715H89.3626V17.1894H92.5608C96.8251 17.1894 99.4902 14.9646 99.4902 11.389C99.4902 7.81344 96.825 5.58862 92.5341 5.58862ZM92.4542 14.4879H89.336V8.29018H92.4542C94.7196 8.29018 95.9456 9.40259 95.9456 11.389C95.9456 13.3755 94.7196 14.4879 92.4542 14.4879Z" fill="white"/>
<path d="M47.1466 18.2753C46.2138 18.7786 45.1744 19.0434 44.1083 19.0434C40.9368 19.0434 38.6447 16.7921 38.6447 13.6933C38.6447 10.5944 40.9368 8.34313 44.1083 8.34313C45.2543 8.31664 46.3737 8.68745 47.3065 9.3496L49.8384 7.49558L49.6785 7.33667C48.2126 6.03886 46.2404 5.37671 44.0017 5.37671C41.5764 5.37671 39.3643 6.19777 37.7652 7.68098C36.1661 9.21717 35.26 11.3625 35.3133 13.5873C35.2866 15.8386 36.1661 18.0105 37.7652 19.5996C39.4443 21.1623 41.683 22.0363 43.975 21.9834C46.5069 21.9834 48.719 21.1093 50.2115 19.5202L47.9461 17.8516L47.1466 18.2753Z" fill="white"/>
<path d="M24.3061 5.4826C24.9457 6.30367 25.4787 7.20419 25.9318 8.15768L13.6188 17.1894L8.44836 13.9581V10.0912L13.5921 13.2959L24.3061 5.4826Z" fill="white"/>
<path d="M3.19862 13.6933C3.19862 13.5079 3.19862 13.349 3.22527 13.1636L0.107035 13.0046C0.107035 13.2165 0.0803833 13.4549 0.0803833 13.6668C0.0803833 17.3748 1.59952 20.7385 4.05147 23.1752L6.26355 20.9769C4.37129 19.1229 3.19862 16.5538 3.19862 13.6933Z" fill="white"/>
<path d="M13.5922 3.36374C13.7788 3.36374 13.9387 3.36374 14.1253 3.39023L14.2852 0.291378C14.072 0.291378 13.8321 0.264893 13.6189 0.264893C9.88766 0.264893 6.50291 1.77459 4.05096 4.21129L6.26305 6.40962C8.12866 4.52912 10.7405 3.36374 13.5922 3.36374Z" fill="white"/>
<path d="M13.5922 24.0227C13.4057 24.0227 13.2458 24.0227 13.0592 23.9963L12.8993 27.0951C13.1125 27.0951 13.3524 27.1216 13.5656 27.1216C17.2968 27.1216 20.6816 25.6119 23.1335 23.1752L20.9214 20.9769C19.0558 22.8839 16.4706 24.0227 13.5922 24.0227Z" fill="white"/>
<path d="M19.4553 5.16478L22.0938 3.23131C19.7751 1.3773 16.8168 0.238403 13.592 0.238403V3.33725C15.7774 3.36374 17.8029 4.02589 19.4553 5.16478Z" fill="white"/>
<path d="M27.1313 13.6932C27.1313 12.8722 27.0513 12.0776 26.9181 11.283L24.0131 13.4284C24.0131 13.5078 24.0131 13.6138 24.0131 13.6932C24.0131 16.7391 22.6805 19.4672 20.575 21.3477L22.6805 23.6519C25.3989 21.2152 27.1313 17.6396 27.1313 13.6932Z" fill="white"/>
<path d="M13.5922 24.0227C10.5272 24.0227 7.78212 22.6984 5.88986 20.606L3.57117 22.6984C6.04976 25.4265 9.62108 27.1216 13.5922 27.1216V24.0227Z" fill="white"/>
<path d="M6.63668 6.03877L4.5312 3.7345C1.78609 6.19769 0.0803833 9.7468 0.0803833 13.6932H3.19862C3.19862 10.6738 4.5312 7.91927 6.63668 6.03877Z" fill="white"/>
</svg>
