<svg width="22" height="22" viewBox="0 0 22 22" fill="none" xmlns="http://www.w3.org/2000/svg">
<rect width="22" height="22" rx="11" fill="#C30080"/>
<g clip-path="url(#clip0_89_21)">
<path d="M11 2.75C9.36831 2.75 7.77325 3.23386 6.41655 4.14038C5.05984 5.0469 4.00242 6.33537 3.378 7.84286C2.75357 9.35035 2.5902 11.0092 2.90853 12.6095C3.22685 14.2098 4.01259 15.6798 5.16637 16.8336C6.32016 17.9874 7.79016 18.7731 9.39051 19.0915C10.9908 19.4098 12.6496 19.2464 14.1571 18.622C15.6646 17.9976 16.9531 16.9402 17.8596 15.5835C18.7661 14.2267 19.25 12.6317 19.25 11C19.255 9.9152 19.045 8.84018 18.6321 7.837C18.2193 6.83382 17.6118 5.92237 16.8447 5.1553C16.0776 4.38823 15.1662 3.78073 14.163 3.36788C13.1598 2.95504 12.0848 2.74504 11 2.75ZM15.3875 13.625C15.3201 13.7349 15.2267 13.8266 15.1155 13.892C15.0044 13.9574 14.8788 13.9945 14.75 14C14.6169 13.9983 14.487 13.9593 14.375 13.8875L10.25 11.4125V7.25C10.25 7.05109 10.329 6.86032 10.4697 6.71967C10.6103 6.57902 10.8011 6.5 11 6.5C11.1989 6.5 11.3897 6.57902 11.5303 6.71967C11.671 6.86032 11.75 7.05109 11.75 7.25V10.5875L15.125 12.6125C15.2115 12.659 15.2875 12.7228 15.3482 12.8001C15.4089 12.8773 15.4529 12.9663 15.4776 13.0614C15.5022 13.1565 15.5069 13.2556 15.4914 13.3526C15.4759 13.4496 15.4406 13.5423 15.3875 13.625Z" fill="#FFBDE9"/>
</g>
<defs>
<clipPath id="clip0_89_21">
<rect width="18" height="18" fill="white" transform="translate(2 2)"/>
</clipPath>
</defs>
</svg>
