<svg width="22" height="22" viewBox="0 0 22 22" fill="none" xmlns="http://www.w3.org/2000/svg">
<path d="M10.9999 0.00011469C8.82436 0.00011469 6.69764 0.64525 4.88871 1.85394C3.07977 3.06263 1.66988 4.78058 0.837326 6.79056C0.00476614 8.80054 -0.213069 11.0123 0.211366 13.146C0.635801 15.2798 1.68344 17.2398 3.22181 18.7782C4.76018 20.3166 6.72018 21.3642 8.85396 21.7886C10.9877 22.2131 13.1995 21.9952 15.2094 21.1627C17.2194 20.3301 18.9374 18.9202 20.1461 17.1113C21.3547 15.3024 21.9999 13.1756 21.9999 11.0001C22.0065 9.55367 21.7265 8.1203 21.176 6.78274C20.6256 5.44518 19.8156 4.22992 18.7928 3.20716C17.7701 2.1844 16.5548 1.37441 15.2173 0.823952C13.8797 0.273498 12.4463 -0.00650503 10.9999 0.00011469ZM16.8499 14.5C16.76 14.6466 16.6355 14.7688 16.4873 14.856C16.3391 14.9432 16.1717 14.9927 15.9999 15C15.8225 14.9977 15.6493 14.9457 15.4999 14.85L9.99995 11.5501V6.00008C9.99995 5.73487 10.1053 5.48052 10.2928 5.29298C10.4804 5.10544 10.7347 5.00009 10.9999 5.00009C11.2652 5.00009 11.5195 5.10544 11.707 5.29298C11.8946 5.48052 11.9999 5.73487 11.9999 6.00008V10.4501L16.4999 13.15C16.6153 13.212 16.7166 13.2972 16.7975 13.4002C16.8784 13.5032 16.9371 13.6218 16.97 13.7485C17.0028 13.8753 17.0091 14.0075 16.9885 14.1368C16.9678 14.2662 16.9206 14.3898 16.8499 14.5Z" fill="#940262"/>
</svg>
