<svg width="30" height="30" viewBox="0 0 30 30" fill="none" xmlns="http://www.w3.org/2000/svg">
<rect width="30" height="30" rx="6" fill="#FF00A8"/>
<rect x="4" y="4" width="22" height="22" rx="11" fill="#C30080"/>
<g clip-path="url(#clip0_39_184)">
<path d="M15 6.75C13.3683 6.75 11.7733 7.23386 10.4165 8.14038C9.05984 9.0469 8.00242 10.3354 7.378 11.8429C6.75357 13.3504 6.5902 15.0092 6.90853 16.6095C7.22685 18.2098 8.01259 19.6798 9.16637 20.8336C10.3202 21.9874 11.7902 22.7731 13.3905 23.0915C14.9908 23.4098 16.6496 23.2464 18.1571 22.622C19.6646 21.9976 20.9531 20.9402 21.8596 19.5835C22.7661 18.2267 23.25 16.6317 23.25 15C23.255 13.9152 23.045 12.8402 22.6321 11.837C22.2193 10.8338 21.6118 9.92237 20.8447 9.1553C20.0776 8.38823 19.1662 7.78073 18.163 7.36788C17.1598 6.95504 16.0848 6.74504 15 6.75ZM19.3875 17.625C19.3201 17.7349 19.2267 17.8266 19.1155 17.892C19.0044 17.9574 18.8788 17.9945 18.75 18C18.6169 17.9983 18.487 17.9593 18.375 17.8875L14.25 15.4125V11.25C14.25 11.0511 14.329 10.8603 14.4697 10.7197C14.6103 10.579 14.8011 10.5 15 10.5C15.1989 10.5 15.3897 10.579 15.5303 10.7197C15.671 10.8603 15.75 11.0511 15.75 11.25V14.5875L19.125 16.6125C19.2115 16.659 19.2875 16.7228 19.3482 16.8001C19.4089 16.8773 19.4529 16.9663 19.4776 17.0614C19.5022 17.1565 19.5069 17.2556 19.4914 17.3526C19.4759 17.4496 19.4406 17.5423 19.3875 17.625Z" fill="#FFBDE9"/>
</g>
<defs>
<clipPath id="clip0_39_184">
<rect width="18" height="18" fill="white" transform="translate(6 6)"/>
</clipPath>
</defs>
</svg>
