<svg width="94" height="25" viewBox="0 0 94 25" fill="none" xmlns="http://www.w3.org/2000/svg">
<path fill-rule="evenodd" clip-rule="evenodd" d="M21.036 10.437C20.7935 10.3272 20.5423 10.2376 20.285 10.169C19.8841 10.062 19.4698 10.0141 19.055 10.027C18.777 10.037 18.507 10.08 18.257 10.212C18.094 10.299 17.959 10.412 17.888 10.588C17.802 10.798 17.845 10.983 17.987 11.152C18.116 11.306 18.282 11.42 18.454 11.516C18.645 11.623 18.837 11.726 19.029 11.829C19.156 11.898 19.284 11.966 19.411 12.036C19.768 12.233 20.109 12.456 20.396 12.751C20.703 13.065 20.909 13.431 20.983 13.87C21.02 14.094 21.023 14.32 20.999 14.547C20.9657 14.9146 20.8567 15.2714 20.679 15.595C20.405 16.085 20.008 16.442 19.522 16.71C19.1094 16.9314 18.6636 17.0844 18.202 17.163C17.7819 17.2396 17.3549 17.2717 16.928 17.259C16.2475 17.2455 15.5722 17.1365 14.922 16.935C14.8354 16.9062 14.7493 16.8756 14.664 16.843L14.556 16.803C14.695 16.162 14.83 15.524 14.966 14.883C15.3036 15.0558 15.6582 15.1932 16.024 15.293C16.31 15.367 16.599 15.413 16.894 15.429C17.122 15.441 17.347 15.447 17.571 15.416C17.87 15.376 18.153 15.299 18.39 15.102C18.5001 15.0169 18.5808 14.8996 18.621 14.7664C18.6611 14.6332 18.6587 14.4908 18.614 14.359C18.571 14.2439 18.5002 14.1412 18.408 14.06C18.2465 13.9126 18.0655 13.7881 17.87 13.69L17.514 13.505C17.366 13.429 17.217 13.352 17.07 13.272C16.6815 13.0695 16.3307 12.8016 16.033 12.48C15.7687 12.1978 15.5904 11.846 15.519 11.466C15.4631 11.1218 15.4832 10.7696 15.578 10.434C15.741 9.834 16.095 9.362 16.587 8.995C17.039 8.659 17.55 8.453 18.097 8.33C18.587 8.222 19.085 8.185 19.587 8.21C20.1985 8.24098 20.8018 8.36334 21.377 8.573C21.417 8.588 21.423 8.601 21.417 8.643C21.291 9.229 21.165 9.815 21.042 10.4C21.045 10.406 21.042 10.419 21.036 10.437ZM29.022 17.121H26.991C26.948 17.121 26.93 17.112 26.921 17.066L26.78 16.39L26.668 15.858C26.662 15.824 26.647 15.812 26.61 15.812H23.792C23.758 15.812 23.742 15.824 23.733 15.855C23.589 16.262 23.441 16.668 23.293 17.075C23.281 17.109 23.266 17.121 23.229 17.121H20.909C21.4763 15.7622 22.044 14.4035 22.612 13.045L22.616 13.035L24.293 9.025C24.447 8.655 24.718 8.432 25.115 8.368C25.1679 8.35908 25.2214 8.35473 25.275 8.355H27.142C27.185 8.355 27.198 8.371 27.207 8.411L27.797 11.249C27.887 11.674 27.975 12.099 28.064 12.526L28.33 13.803L28.64 15.291L28.641 15.294C28.7581 15.8532 28.8748 16.4126 28.991 16.972V16.974L29.022 17.121ZM25.605 10.741V10.737H25.589C25.192 11.831 24.798 12.922 24.401 14.022C25.031 14.019 25.657 14.019 26.288 14.019C26.061 12.919 25.833 11.83 25.605 10.741ZM1.02102 8.5L0.999023 8.607C1.01402 8.61 1.02602 8.613 1.03502 8.622L1.41902 8.724C1.65702 8.786 1.89502 8.848 2.13102 8.918C2.51802 9.032 2.89102 9.18 3.24802 9.368C3.36197 9.4246 3.46239 9.50507 3.54246 9.60394C3.62253 9.70282 3.68036 9.81778 3.71202 9.941L3.84602 10.451L3.98002 10.961L5.41002 16.507L5.49002 16.815L5.57002 17.123C5.58902 17.126 5.60102 17.126 5.61702 17.126H7.91702C7.95502 17.129 7.97002 17.114 7.98302 17.08L9.79502 12.75L9.79602 12.747L11.61 8.413L11.617 8.393C11.6201 8.38182 11.6238 8.3708 11.628 8.36H11.564L10.442 8.359C10.069 8.359 9.69502 8.359 9.32102 8.357C9.27102 8.357 9.25102 8.373 9.23102 8.419L8.60102 10.016C8.07002 11.365 7.53802 12.714 7.00402 14.064C6.97002 14.147 6.93602 14.23 6.90002 14.325L6.88702 14.264L6.74502 13.509L6.57002 12.575L6.40702 11.707L6.24402 10.837L6.14402 10.302L5.94002 9.23C5.83202 8.697 5.41402 8.358 4.86902 8.358H1.05002L1.02002 8.5H1.02102ZM10.788 16.895L10.741 17.115L10.745 17.117C10.753 17.119 10.758 17.121 10.763 17.118H12.966C12.991 17.118 13 17.109 13.006 17.084L13.041 16.92L13.077 16.755C13.363 15.405 13.652 14.055 13.941 12.706C14.2531 11.2555 14.5631 9.80445 14.871 8.353H14.107C13.623 8.353 13.139 8.355 12.655 8.353C12.615 8.353 12.609 8.375 12.604 8.401L12.603 8.405C12.55 8.639 12.501 8.873 12.452 9.107C12.1796 10.3759 11.908 11.6449 11.637 12.914L11.366 14.182C11.276 14.598 11.188 15.013 11.1 15.428L10.834 16.675L10.788 16.895Z" fill="white"/>
<path fill-rule="evenodd" clip-rule="evenodd" d="M40.01 8.18805H44.449V16.175H40.01V8.18805Z" fill="#B0D3F5"/>
<path fill-rule="evenodd" clip-rule="evenodd" d="M40.292 12.1821C40.292 10.5591 41.053 9.11905 42.222 8.18805C41.3318 7.48411 40.23 7.10143 39.095 7.10205C38.4283 7.10205 37.768 7.2335 37.1521 7.48888C36.5361 7.74426 35.9766 8.11856 35.5054 8.59037C35.0342 9.06219 34.6607 9.62226 34.4062 10.2385C34.1517 10.8548 34.0211 11.5153 34.022 12.1821C34.0211 12.8488 34.1517 13.5093 34.4062 14.1256C34.6607 14.7418 35.0342 15.3019 35.5054 15.7737C35.9766 16.2455 36.5361 16.6198 37.1521 16.8752C37.768 17.1306 38.4283 17.2621 39.095 17.2621C40.278 17.2621 41.363 16.8521 42.223 16.1751C41.6201 15.699 41.1331 15.0922 40.7988 14.4005C40.4645 13.7088 40.2905 12.9503 40.292 12.1821ZM50.437 12.1821C50.438 12.8488 50.3074 13.5093 50.0529 14.1256C49.7984 14.7418 49.4248 15.3019 48.9537 15.7737C48.4825 16.2455 47.923 16.6198 47.307 16.8752C46.6911 17.1306 46.0308 17.2621 45.364 17.2621C44.2287 17.2626 43.1264 16.8796 42.236 16.1751C42.8402 15.7 43.328 15.0935 43.6624 14.4016C43.9969 13.7096 44.1691 12.9506 44.166 12.1821C44.166 10.5591 43.406 9.11905 42.236 8.18805C43.1265 7.4839 44.2288 7.10121 45.364 7.10205C48.168 7.10205 50.437 9.38805 50.437 12.1821Z" fill="white"/>
<path fill-rule="evenodd" clip-rule="evenodd" d="M58.91 7.00203C59.246 7.00003 60.244 6.91003 60.666 8.33803C60.951 9.30003 61.404 10.875 62.026 13.065H62.279C62.7332 11.4882 63.1916 9.9125 63.654 8.33803C64.081 6.89503 65.148 7.00203 65.574 7.00203H68.868V17.262H65.512V11.216H65.287L63.415 17.262H60.89L59.019 11.211H58.794V17.262H55.437V7.00203H58.91ZM73.688 7.00203V13.052H73.956L76.232 8.07703C76.674 7.08703 77.616 7.00203 77.616 7.00203H80.864V17.262H77.437V11.211H77.169L74.938 16.187C74.496 17.172 73.51 17.262 73.51 17.262H70.262V7.00203H73.688ZM92.708 11.877C92.23 13.234 90.729 14.206 89.068 14.206H85.474V17.262H82.215V11.877H92.708Z" fill="white"/>
<path fill-rule="evenodd" clip-rule="evenodd" d="M89.225 7.00201H82.045C82.215 9.28601 84.179 11.242 86.213 11.242H92.936C93.323 9.34301 91.988 7.00201 89.225 7.00201Z" fill="#B0D3F5"/>
<path fill-rule="evenodd" clip-rule="evenodd" d="M21.036 10.437C20.7935 10.3272 20.5423 10.2376 20.285 10.169C19.8841 10.062 19.4698 10.0141 19.055 10.027C18.777 10.037 18.507 10.08 18.257 10.212C18.094 10.299 17.959 10.412 17.888 10.588C17.802 10.798 17.845 10.983 17.987 11.152C18.116 11.306 18.282 11.42 18.454 11.516C18.645 11.623 18.837 11.726 19.029 11.829C19.156 11.898 19.284 11.966 19.411 12.036C19.768 12.233 20.109 12.456 20.396 12.751C20.703 13.065 20.909 13.431 20.983 13.87C21.02 14.094 21.023 14.32 20.999 14.547C20.962 14.917 20.86 15.268 20.679 15.595C20.405 16.085 20.008 16.442 19.522 16.71C19.1094 16.9314 18.6636 17.0844 18.202 17.163C17.7819 17.2396 17.3549 17.2717 16.928 17.259C16.2475 17.2455 15.5722 17.1365 14.922 16.935C14.8354 16.9062 14.7493 16.8755 14.664 16.843L14.556 16.803C14.695 16.162 14.83 15.524 14.966 14.883C15.3036 15.0558 15.6582 15.1932 16.024 15.293C16.31 15.367 16.599 15.413 16.894 15.429C17.122 15.441 17.347 15.447 17.571 15.416C17.87 15.376 18.153 15.299 18.39 15.102C18.5001 15.0169 18.5808 14.8996 18.621 14.7664C18.6611 14.6332 18.6587 14.4908 18.614 14.359C18.571 14.2439 18.5002 14.1412 18.408 14.06C18.2465 13.9126 18.0655 13.7881 17.87 13.69L17.514 13.505C17.366 13.429 17.217 13.352 17.07 13.272C16.6815 13.0695 16.3307 12.8016 16.033 12.48C15.7687 12.1978 15.5904 11.846 15.519 11.466C15.4631 11.1218 15.4832 10.7696 15.578 10.434C15.741 9.834 16.095 9.362 16.587 8.995C17.039 8.659 17.55 8.453 18.097 8.33C18.587 8.222 19.085 8.185 19.587 8.21C20.1985 8.24098 20.8018 8.36334 21.377 8.573C21.417 8.588 21.423 8.601 21.417 8.643C21.291 9.229 21.165 9.815 21.042 10.4C21.045 10.406 21.042 10.419 21.036 10.437ZM29.022 17.121H26.991C26.948 17.121 26.93 17.112 26.921 17.066L26.78 16.39L26.668 15.858C26.662 15.824 26.647 15.812 26.61 15.812H23.792C23.758 15.812 23.742 15.824 23.733 15.855C23.589 16.262 23.441 16.668 23.293 17.075C23.281 17.109 23.266 17.121 23.229 17.121H20.909C21.4763 15.7622 22.044 14.4035 22.612 13.045L22.616 13.035L24.293 9.025C24.447 8.655 24.718 8.432 25.115 8.368C25.1679 8.35908 25.2214 8.35473 25.275 8.355H27.142C27.185 8.355 27.198 8.371 27.207 8.411L27.797 11.249C27.887 11.674 27.975 12.099 28.064 12.526L28.33 13.803L28.64 15.291L28.641 15.294L28.951 16.779L28.991 16.972V16.974L29.022 17.121ZM25.605 10.741V10.737H25.589C25.192 11.831 24.798 12.922 24.401 14.022C25.031 14.019 25.657 14.019 26.288 14.019C26.061 12.919 25.833 11.83 25.605 10.741ZM1.02102 8.5L0.999023 8.607C1.01402 8.61 1.02602 8.613 1.03502 8.622L1.41902 8.724C1.65702 8.786 1.89502 8.848 2.13102 8.918C2.51802 9.032 2.89102 9.18 3.24802 9.368C3.36197 9.4246 3.46239 9.50507 3.54246 9.60394C3.62253 9.70282 3.68036 9.81778 3.71202 9.941L3.84602 10.451L3.98002 10.961L5.41002 16.507L5.49002 16.815L5.57002 17.123C5.58902 17.126 5.60102 17.126 5.61702 17.126H7.91702C7.95502 17.129 7.97002 17.114 7.98302 17.08L9.79502 12.75L9.79602 12.747L11.61 8.413C11.6146 8.3952 11.6206 8.37781 11.628 8.361H11.564C11.19 8.359 10.816 8.359 10.442 8.359C10.069 8.359 9.69502 8.359 9.32102 8.357C9.27102 8.357 9.25102 8.373 9.23102 8.419L8.60102 10.016C8.07002 11.365 7.53802 12.714 7.00402 14.064C6.97002 14.147 6.93602 14.23 6.90002 14.325L6.88702 14.264L6.74502 13.509L6.57002 12.575L6.40702 11.707L6.24402 10.837L6.14402 10.302C6.07734 9.94442 6.00934 9.58708 5.94002 9.23C5.83202 8.697 5.41402 8.358 4.86902 8.358H1.05002L1.02002 8.5H1.02102ZM10.788 16.895L10.741 17.115L10.745 17.117C10.753 17.119 10.758 17.121 10.763 17.118H12.966C12.991 17.118 13 17.109 13.006 17.084L13.041 16.92L13.077 16.755C13.363 15.405 13.652 14.055 13.941 12.706C14.2531 11.2555 14.5631 9.80445 14.871 8.353H14.107C13.623 8.353 13.139 8.355 12.655 8.353C12.615 8.353 12.609 8.375 12.604 8.401L12.603 8.405C12.55 8.639 12.501 8.873 12.452 9.107C12.1796 10.3759 11.908 11.6449 11.637 12.914L11.366 14.182C11.276 14.598 11.188 15.013 11.1 15.428L10.834 16.675L10.788 16.895Z" fill="url(#paint0_linear_202_94)"/>
<path fill-rule="evenodd" clip-rule="evenodd" d="M40.01 8.18805H44.449V16.175H40.01V8.18805Z" fill="#FF5F00"/>
<path fill-rule="evenodd" clip-rule="evenodd" d="M40.292 12.1821C40.292 10.5591 41.053 9.11905 42.222 8.18805C41.3318 7.48411 40.23 7.10143 39.095 7.10205C38.4283 7.10205 37.768 7.2335 37.1521 7.48888C36.5361 7.74426 35.9766 8.11856 35.5054 8.59037C35.0342 9.06219 34.6607 9.62226 34.4062 10.2385C34.1517 10.8548 34.0211 11.5153 34.022 12.1821C34.0211 12.8488 34.1517 13.5093 34.4062 14.1256C34.6607 14.7418 35.0342 15.3019 35.5054 15.7737C35.9766 16.2455 36.5361 16.6198 37.1521 16.8752C37.768 17.1306 38.4283 17.2621 39.095 17.2621C40.278 17.2621 41.363 16.8521 42.223 16.1751C41.6201 15.699 41.1331 15.0922 40.7988 14.4005C40.4645 13.7088 40.2905 12.9503 40.292 12.1821Z" fill="#EB001B"/>
<path fill-rule="evenodd" clip-rule="evenodd" d="M50.437 12.1821C50.4379 12.8488 50.3074 13.5093 50.0529 14.1256C49.7983 14.7418 49.4248 15.3019 48.9537 15.7737C48.4825 16.2455 47.9229 16.6198 47.307 16.8752C46.6911 17.1306 46.0308 17.2621 45.364 17.2621C44.2286 17.2626 43.1264 16.8796 42.236 16.1751C42.8401 15.7 43.328 15.0935 43.6624 14.4016C43.9968 13.7096 44.1691 12.9506 44.166 12.1821C44.166 10.5591 43.406 9.11905 42.236 8.18805C43.1265 7.4839 44.2288 7.10121 45.364 7.10205C48.168 7.10205 50.437 9.38805 50.437 12.1821Z" fill="#F79E1B"/>
<path fill-rule="evenodd" clip-rule="evenodd" d="M58.91 7.00203C59.246 7.00003 60.244 6.91003 60.666 8.33803C60.951 9.30003 61.404 10.875 62.026 13.065H62.279C62.7332 11.4882 63.1916 9.9125 63.654 8.33803C64.081 6.89503 65.148 7.00203 65.574 7.00203H68.868V17.262H65.512V11.216H65.287L63.415 17.262H60.89L59.019 11.211H58.794V17.262H55.437V7.00203H58.91ZM73.688 7.00203V13.052H73.956L76.232 8.07703C76.674 7.08703 77.616 7.00203 77.616 7.00203H80.864V17.262H77.437V11.211H77.169L74.938 16.187C74.496 17.172 73.51 17.262 73.51 17.262H70.262V7.00203H73.688ZM92.708 11.877C92.23 13.234 90.729 14.206 89.068 14.206H85.474V17.262H82.215V11.877H92.708Z" fill="#0F754E"/>
<path fill-rule="evenodd" clip-rule="evenodd" d="M89.225 7.00201H82.045C82.215 9.28601 84.179 11.242 86.213 11.242H92.936C93.323 9.34301 91.988 7.00201 89.225 7.00201Z" fill="url(#paint1_linear_202_94)"/>
<defs>
<linearGradient id="paint0_linear_202_94" x1="0.950023" y1="42.4" x2="28.887" y2="42.4" gradientUnits="userSpaceOnUse">
<stop stop-color="#222459"/>
<stop offset="1" stop-color="#2548A1"/>
</linearGradient>
<linearGradient id="paint1_linear_202_94" x1="93.001" y1="9.66901" x2="82.044" y2="9.66901" gradientUnits="userSpaceOnUse">
<stop stop-color="#1F5CD7"/>
<stop offset="1" stop-color="#02AEFF"/>
</linearGradient>
</defs>
</svg>
