<svg width="40" height="40" viewBox="0 0 40 40" fill="none" xmlns="http://www.w3.org/2000/svg">
<g clip-path="url(#clip0_85_41)">
<path d="M39.9883 0H0.0117188C0.00524666 0 0 0.00524666 0 0.0117188V39.9883C0 39.9948 0.00524666 40 0.0117188 40H39.9883C39.9948 40 40 39.9948 40 39.9883V0.0117188C40 0.00524666 39.9948 0 39.9883 0Z" fill="#2D598C"/>
<path d="M21.4063 28.3594C21.7969 28.2813 22.5 28.125 22.5 27.1875C22.5 27.1875 22.4219 24.8438 23.5156 24.5313C24.6094 24.2188 26.0156 26.7969 27.5 27.8125C28.5938 28.5156 29.4531 28.4375 29.4531 28.4375L33.4375 28.3594C33.4375 28.3594 35.4688 28.2031 34.5313 26.5625C34.4531 26.4063 33.8281 25.3906 31.4844 23.2813C29.0625 20.9375 29.4531 21.3281 32.3438 17.3438C34.1406 14.9219 34.9219 13.4375 34.6875 12.8906C34.375 12.3438 33.125 12.4219 33.125 12.4219H28.6719C28.2031 12.4219 27.9688 12.5 27.7344 12.8906C27.7344 12.8906 27.0313 14.8438 26.0938 16.4063C24.1406 19.7656 23.3594 19.9219 22.9688 19.6875C22.2656 19.2969 22.4219 17.8125 22.4219 16.7969C22.4219 13.2813 22.9688 12.0313 21.4063 11.7188C20.3906 11.5625 16.7969 11.4063 15.7031 11.9531C15.1563 12.2656 14.8438 12.8125 15.0781 12.8906C15.3125 12.8906 16.0156 12.9688 16.4063 13.4375C17.0313 14.4531 17.1094 19.2969 16.25 19.7656C15.0781 20.625 12.1094 14.9219 11.4063 13.0469C11.25 12.5781 11.0156 12.5 10.4688 12.3438H6.17189C5.70314 12.3438 5.00002 12.4219 5.31252 13.3594C7.42189 17.7344 11.7969 28.4375 19.6875 28.3594H21.4063Z" fill="white"/>
</g>
<defs>
<clipPath id="clip0_85_41">
<rect width="40" height="40" rx="8" fill="white"/>
</clipPath>
</defs>
</svg>
