<svg width="40" height="40" viewBox="0 0 40 40" fill="none" xmlns="http://www.w3.org/2000/svg">
<rect width="40" height="40" rx="8" fill="#FF0000"/>
<g clip-path="url(#clip0_89_22)">
<path d="M23.6188 9H20.4931C17.3264 9 14.131 11.3384 14.131 16.5628C14.131 19.2688 15.2778 21.3764 17.3802 22.575L13.5323 29.5399C13.3498 29.8693 13.3451 30.2426 13.5195 30.5385C13.6898 30.8274 14.0011 31 14.3521 31H16.2986C16.7408 31 17.0856 30.7863 17.251 30.4118L20.8588 23.355H21.1221V30.1205C21.1221 30.5973 21.5245 31 22.0007 31H23.7011C24.2352 31 24.608 30.6271 24.608 30.0932V9.96263C24.6081 9.39587 24.2014 9 23.6188 9ZM21.1221 20.2203H20.6577C18.8566 20.2203 17.7814 18.7501 17.7814 16.2876C17.7814 13.2257 19.1397 12.1348 20.4108 12.1348H21.1221V20.2203Z" fill="white"/>
</g>
<defs>
<clipPath id="clip0_89_22">
<rect width="12" height="22" fill="white" transform="translate(13 9)"/>
</clipPath>
</defs>
</svg>
