<svg width="40" height="21" viewBox="0 0 40 21" fill="none" xmlns="http://www.w3.org/2000/svg">
<path d="M15.222 0.619122C16.876 0.0291221 18.679 -0.157878 20.412 0.139122C23.24 0.578122 25.84 2.26212 27.422 4.64812C28.068 5.61212 28.54 6.68812 28.824 7.81312C29.517 10.6191 29.013 13.7181 27.387 16.1171C25.798 18.5331 23.159 20.2391 20.293 20.6431C17.123 21.1551 13.751 20.0351 11.489 17.7581C9.98353 16.2799 8.96902 14.3744 8.583 12.3001C8.546 12.1001 8.539 11.8901 8.43 11.7101C8.38 12.2721 8.411 12.8371 8.403 13.4001C8.405 15.0001 8.399 16.6001 8.406 18.2021C7.181 18.2091 5.956 18.2021 4.73 18.2021C3.14625 13.167 1.56958 8.12967 0 3.09012C2.801 3.08512 5.603 3.10012 8.404 3.08312C8.418 5.08312 8.372 7.08712 8.428 9.08712C8.47234 9.00521 8.50339 8.91677 8.52 8.82512C8.8052 6.90306 9.62546 5.10002 10.887 3.62212C12.0485 2.26409 13.5415 1.22959 15.221 0.619122H15.222ZM18.317 6.57412C17.444 6.67412 16.603 7.07312 15.984 7.69812C15.107 8.54812 14.687 9.85012 14.928 11.0521C15.204 12.6821 16.658 13.9921 18.285 14.1871C18.8811 14.2622 19.4866 14.1974 20.0533 13.9977C20.6201 13.7981 21.1325 13.4692 21.55 13.0371C22.271 12.3011 22.665 11.2671 22.659 10.2411C22.6301 9.37573 22.303 8.54693 21.733 7.89512C20.903 6.92812 19.58 6.42312 18.317 6.57412Z" fill="white"/>
<path d="M15.222 0.619122C16.876 0.0291221 18.679 -0.157878 20.412 0.139122C23.24 0.578122 25.84 2.26212 27.422 4.64812C28.068 5.61212 28.54 6.68812 28.824 7.81312C29.517 10.6191 29.013 13.7181 27.387 16.1171C25.798 18.5331 23.159 20.2391 20.293 20.6431C17.123 21.1551 13.751 20.0351 11.489 17.7581C9.98353 16.2799 8.96902 14.3744 8.583 12.3001C8.546 12.1001 8.539 11.8901 8.43 11.7101C8.38 12.2721 8.411 12.8371 8.403 13.4001C8.405 15.0001 8.399 16.6001 8.406 18.2021C7.181 18.2091 5.956 18.2021 4.73 18.2021C3.14625 13.167 1.56958 8.12967 0 3.09012C2.801 3.08512 5.603 3.10012 8.404 3.08312C8.418 5.08312 8.372 7.08712 8.428 9.08712C8.47234 9.00521 8.50339 8.91677 8.52 8.82512C8.8052 6.90306 9.62546 5.10002 10.887 3.62212C12.0485 2.26409 13.5415 1.22959 15.221 0.619122H15.222ZM18.317 6.57412C17.444 6.67412 16.603 7.07312 15.984 7.69812C15.107 8.54812 14.687 9.85012 14.928 11.0521C15.204 12.6821 16.658 13.9921 18.285 14.1871C18.8811 14.2622 19.4866 14.1974 20.0533 13.9977C20.6201 13.7981 21.1325 13.4692 21.55 13.0371C22.271 12.3011 22.665 11.2671 22.659 10.2411C22.6301 9.37573 22.303 8.54693 21.733 7.89512C20.903 6.92812 19.58 6.42312 18.317 6.57412Z" fill="#8B3EFC"/>
</svg>
